<svg width="640" height="230" viewBox="0 0 640 230" fill="none" xmlns="http://www.w3.org/2000/svg">
  <rect width="640" height="230" rx="18" fill="#0d1117"/>
  <rect x="1" y="1" width="638" height="228" rx="17" stroke="#f2cc60" stroke-opacity=".6" stroke-width="2"/>
  <rect x="28" y="28" width="86" height="86" rx="16" fill="#241a05" stroke="#f2cc60" stroke-opacity=".75"/>
  <path d="M72 42c-18 0-31 13-31 30 0 12 7 23 18 28v13h26v-13c11-5 18-16 18-28 0-17-13-30-31-30z" fill="#332705" stroke="#f2cc60" stroke-width="5"/>
  <path d="M61 123h22" stroke="#f2cc60" stroke-width="6" stroke-linecap="round"/>
  <text x="138" y="57" fill="#f0f6fc" font-size="34" font-weight="800" font-family="Inter, Arial, sans-serif">idea-bench</text>
  <text x="138" y="91" fill="#8b949e" font-size="18" font-family="Inter, Arial, sans-serif">Blind LLM evaluation campaigns</text>
  <text x="138" y="124" fill="#f2cc60" font-size="18" font-family="ui-monospace, SFMono-Regular, Menlo, monospace">1 star</text>
  <text x="245" y="124" fill="#f0f6fc" font-size="18" font-family="ui-monospace, SFMono-Regular, Menlo, monospace">TypeScript</text>
  <rect x="138" y="153" width="438" height="22" rx="11" fill="#161b22"/>
  <rect x="138" y="153" width="330" height="22" rx="11" fill="#f2cc60"/>
  <text x="138" y="200" fill="#f7d774" font-size="17" font-family="ui-monospace, SFMono-Regular, Menlo, monospace">status: opinions into rankings</text>
</svg>
